<?xml version="1.0" encoding="UTF-8" standalone="no"?>
<!-- Created with Inkscape (http://www.inkscape.org/) -->

<svg
   xmlns:dc="http://purl.org/dc/elements/1.1/"
   xmlns:cc="http://creativecommons.org/ns#"
   xmlns:rdf="http://www.w3.org/1999/02/22-rdf-syntax-ns#"
   xmlns:svg="http://www.w3.org/2000/svg"
   xmlns="http://www.w3.org/2000/svg"
   xmlns:sodipodi="http://sodipodi.sourceforge.net/DTD/sodipodi-0.dtd"
   xmlns:inkscape="http://www.inkscape.org/namespaces/inkscape"
   width="50"
   height="50"
   id="svg2"
   version="1.1"
   inkscape:version="0.48.3.1 r9886"
   sodipodi:docname="minus.svg">
  <defs
     id="defs4" />
  <sodipodi:namedview
     id="base"
     pagecolor="#ffffff"
     bordercolor="#666666"
     borderopacity="1.0"
     inkscape:pageopacity="0.0"
     inkscape:pageshadow="2"
     inkscape:zoom="8"
     inkscape:cx="71.875"
     inkscape:cy="40"
     inkscape:document-units="px"
     inkscape:current-layer="layer1"
     showgrid="false"
     inkscape:window-width="1920"
     inkscape:window-height="1124"
     inkscape:window-x="0"
     inkscape:window-y="24"
     inkscape:window-maximized="1" />
  <metadata
     id="metadata7">
    <rdf:RDF>
      <cc:Work
         rdf:about="">
        <dc:format>image/svg+xml</dc:format>
        <dc:type
           rdf:resource="http://purl.org/dc/dcmitype/StillImage" />
        <dc:title></dc:title>
      </cc:Work>
    </rdf:RDF>
  </metadata>
  <g
     inkscape:label="Layer 1"
     inkscape:groupmode="layer"
     id="layer1"
     transform="translate(0,-1002.3622)">
    <path
       style="fill:#ffb600;fill-opacity:1;fill-rule:evenodd;stroke:#000000;stroke-width:1.89053643;stroke-linecap:round;stroke-linejoin:round;stroke-miterlimit:4;stroke-opacity:1;stroke-dasharray:none;stroke-dashoffset:0"
       d="M 20.1875 2.75 C 18.996156 2.75 18.03125 3.714906 18.03125 4.90625 L 18.03125 18.5625 L 5.09375 18.5625 C 3.902406 18.5625 2.96875 19.527406 2.96875 20.71875 L 2.96875 29.34375 C 2.96875 30.535094 3.902406 31.5 5.09375 31.5 L 18.03125 31.5 L 18.03125 45.84375 C 18.03125 47.035094 18.996156 48 20.1875 48 L 28.8125 48 C 30.003844 48 30.96875 47.035094 30.96875 45.84375 L 30.96875 31.5 L 46.0625 31.5 C 47.253844 31.5 48.21875 30.535094 48.21875 29.34375 L 48.21875 20.71875 C 48.21875 19.527406 47.253844 18.5625 46.0625 18.5625 L 30.96875 18.5625 L 30.96875 4.90625 C 30.96875 3.714906 30.003844 2.75 28.8125 2.75 L 20.1875 2.75 z "
       transform="translate(0,1002.3622)"
       id="rect2985" />
  </g>
</svg>
